<?xml version="1.0" encoding="UTF-8" standalone="no"?>
<!-- Generator: Adobe Illustrator 16.0.4, SVG Export Plug-In . SVG Version: 6.00 Build 0)  -->

<svg
   version="1.1"
   id="Layer_1"
   x="0px"
   y="0px"
   width="256"
   height="256"
   viewBox="0 0 256 256"
   enable-background="new 0 0 306 344.35"
   xml:space="preserve"
   sodipodi:docname="logo.svg"
   inkscape:version="1.3 (0e150ed6c4, 2023-07-21)"
   xmlns:inkscape="http://www.inkscape.org/namespaces/inkscape"
   xmlns:sodipodi="http://sodipodi.sourceforge.net/DTD/sodipodi-0.dtd"
   xmlns="http://www.w3.org/2000/svg"
   xmlns:svg="http://www.w3.org/2000/svg"><defs
   id="defs6" /><sodipodi:namedview
   id="namedview6"
   pagecolor="#ffffff"
   bordercolor="#000000"
   borderopacity="0.25"
   inkscape:showpageshadow="2"
   inkscape:pageopacity="0.0"
   inkscape:pagecheckerboard="0"
   inkscape:deskcolor="#d1d1d1"
   inkscape:zoom="2.4087011"
   inkscape:cx="240.17093"
   inkscape:cy="220.24318"
   inkscape:window-width="2560"
   inkscape:window-height="1369"
   inkscape:window-x="-8"
   inkscape:window-y="-8"
   inkscape:window-maximized="1"
   inkscape:current-layer="layer1" />&#10;&#10;&#10;&#10;<g
   inkscape:groupmode="layer"
   id="layer1"
   inkscape:label="Layer 1"><rect
     style="opacity:1;fill:#ffd700;fill-opacity:1;stroke-width:0"
     id="rect6"
     width="256"
     height="256"
     x="0"
     y="0"
     rx="64"
     ry="64" /></g><g
   id="g4"
   transform="translate(-30.998207,-64.183638)"
   style="fill:#4169e1;fill-opacity:1">&#10;	<path
   fill="#ffffff"
   d="m 165.83121,294.18364 c -56.243,0 -102.000006,-45.757 -102.000006,-102 0,-56.243 45.757006,-102.000004 102.000006,-102.000004 36.292,0 70.139,19.530004 88.331,50.968004 l -44.143,25.544 c -9.105,-15.736 -26.038,-25.512 -44.188,-25.512 -28.122,0 -51,22.878 -51,51 0,28.121 22.878,51 51,51 18.152,0 35.085,-9.776 44.191,-25.515 l 44.143,25.543 c -18.192,31.441 -52.04,50.972 -88.334,50.972 z"
   id="path4"
   style="fill:#4169e1;fill-opacity:1" />&#10;</g>&#10;&#10;&#10;</svg>
